Coordinates
version=1
nRows=6
nColumns=36
inDegrees=yes

Units are S.I. units (second, meters, Newtons, ...)
If the header above contains a line with 'inDegrees', this indicates whether rotational values are in degrees (yes) or radians (no).

endheader
time	pelvis_tilt	pelvis_list	pelvis_rotation	pelvis_tx	pelvis_ty	pelvis_tz	hip_flexion_r	hip_adduction_r	hip_rotation_r	knee_angle_r	knee_angle_r_beta	ankle_angle_r	subtalar_angle_r	mtp_angle_r	hip_flexion_l	hip_adduction_l	hip_rotation_l	knee_angle_l	knee_angle_l_beta	ankle_angle_l	subtalar_angle_l	mtp_angle_l	lumbar_extension	lumbar_bending	lumbar_rotation	arm_flex_r	arm_add_r	arm_rot_r	elbow_flex_r	pro_sup_r	arm_flex_l	arm_add_l	arm_rot_l	elbow_flex_l	pro_sup_l
      2.53333330	    -14.89848053	     -4.65500220	     14.32540030	      0.51825038	      0.89498110	     -0.13355397	     43.99892641	     -6.19212429	     12.00990231	     43.47156600	      0.75872196	     14.03452072	    -16.66494840	     -7.49999987	     42.68618391	     -4.85800754	      0.00517892	     46.04247656	      0.80359281	      6.05740821	    -31.89071822	     -7.49999987	    -13.72517575	      0.02800361	      6.10402880	      8.29870044	    -20.58887865	      5.64090673	    123.41723853	     92.62136155	     -0.53210955	    -19.14384007	     22.33926260	    134.53814732	     98.90026109
      2.55000000	    -13.80774719	     -4.46544159	     14.68805854	      0.52480600	      0.92231906	     -0.13445285	     39.13062413	     -7.25121440	     11.00375579	     37.60056870	      0.65625372	      9.73658819	    -14.68249846	     -7.49999987	     37.84901177	     -5.07280363	     -1.69802217	     39.66173490	      0.69222786	      2.46187721	    -29.63267949	     -7.49999987	    -11.39315299	      0.25508207	      5.90872831	      2.87980535	    -20.28099598	      4.43607637	    124.72572493	     91.27692946	     -5.29686807	    -18.67699581	     20.92138244	    135.52482126	     97.38935693
      2.56666670	    -12.09305549	     -4.50119044	     15.40921543	      0.54589269	      0.96577709	     -0.15012054	     32.08362824	     -8.27622339	      8.68966030	     29.44890624	      0.51398037	      2.68943532	    -12.36257433	     -7.49999987	     29.96063965	     -7.38419370	     -7.77173932	     29.59337368	      0.51650181	     -9.70412676	    -31.23994951	     -7.49999987	     -9.32745234	      1.00599085	      5.76804869	     -2.44466128	    -19.70973741	      3.23581589	    124.89513194	     91.65391645	     -9.61767389	    -17.42153143	     19.68615631	    134.79855735	     97.96474067
      2.58333330	    -10.49429351	     -5.02833040	     15.98692348	      0.55338976	      1.00103898	     -0.15179191	     26.41237325	     -8.36281712	      5.79927449	     22.78302415	      0.39763878	     -3.44803295	     -7.52733193	     -7.49999987	     22.84165956	     -9.54006190	    -16.57682265	     19.05303059	      0.33253812	    -24.45149309	    -31.81105178	     -7.49999987	     -8.20320671	      2.19542317	      5.69829305	     -7.45404524	    -18.13511213	      2.48881097	    125.54941527	     91.38823824	    -13.26824925	    -16.26473144	     18.13620832	    133.94450440	     97.48928440
      2.60000000	     -9.04686828	     -5.74028411	     16.58733106	      0.56056300	      1.03291510	     -0.15096093	     21.97597702	     -7.93428588	      4.11678540	     17.35531988	      0.30290747	     -9.31990693	     -2.57898283	     -7.49999987	     17.42289396	    -10.68950996	    -28.15985470	      9.64568493	      0.16834896	    -37.91454851	    -30.59386604	     -7.49999987	     -7.52650670	      3.74547896	      5.66230923	    -11.22321238	    -16.90996236	      1.31322262	    125.99362860	     89.90976466	    -16.09831946	    -15.10876395	     16.15167468	    133.12910908	     95.56774309
      2.61666670	     -8.09370943	     -6.38721845	     17.13439511	      0.56103718	      1.06012936	     -0.15786026	     18.97878268	     -7.58989422	      1.92394965	     13.91767231	      0.24290921	    -14.62512483	      1.40869280	     -7.49999987	     14.62536003	    -10.93658474	    -37.24737608	      4.32494177	      0.07548447	    -45.38910992	    -28.78608052	     -7.49999987	     -6.78955138	      5.01759651	      5.05609765	    -13.80603839	    -15.92531303	      0.51818638	    125.93572476	     89.97571208	    -17.75327114	    -13.61446746	     14.12861516	    131.83374967	     95.54388392
